# xmcd
#
# Track frame offsets: 
#        150
#        12410
#        25668
#        40169
#        54640
#        68649
#        84138
#        97379
#        112954
#        126592
#        141267
#        156554
#        168768
#        182474
#        198072
#        213044
#        220441
#        234376
#
# Disc length: 3350 seconds
#
# Revision: 0
# Processed by: cddbd v1.5.2PL0 Copyright (c) Steve Scherf et al.
# Submitted via: ExactAudioCopyFreeDBPlugin 1.0
#
DISCID=f40d1412
DTITLE=Death Might Be Your Santa Claus - Death Might Be Your Santa Cla
DTITLE=us
DYEAR=2012
DGENRE=Blues
TTITLE0=Harmon Ray - Xmas Blues
TTITLE1=Reverend J.M. Gates - Did You Spend Christmas In Jail?
TTITLE2=The Heavenly Gospel Singers - When Was Jesus Born?
TTITLE3=Reverend J.M. Gates - He Was Born In A Manger
TTITLE4=Lil McClintock - Don't Think I'm Santa Claus
TTITLE5=Tampa Red - Christmas and New Year Blues
TTITLE6=Reverend J.M. Gates - Will The Coffin Be Your Santa Claus
TTITLE7=Victoria Spivey - Christmas Morning Blues
TTITLE8=Reverend J.M. Gates - Death Might Be Your Santa Claus
TTITLE9=Bo Carter - Santa Claus
TTITLE10=Sonny Boy Williamson - Christmas Morning Blues
TTITLE11=Casey Bill and His Orchestra - Christmas Time Blues
TTITLE12=Ozie Ware with Hot Five (Duke Ellington) - Santa, Bring My Ma
TTITLE12=n Back
TTITLE13=Bessie Smith - At The Christmas Ball
TTITLE14=Butterbean and Susie - Papa Ain't No Santa Claus (Mama Ain't No
TTITLE14=Christmas Tree)
TTITLE15=Reverend J.M. Gates - Will Hell Be Your Santa Claus
TTITLE16=Kansas City Kitty - Christmas Morning Blues
TTITLE17=Lightnin' Hopkins - Santa 
EXTD=
EXTT0=
EXTT1=
EXTT2=
EXTT3=
EXTT4=
EXTT5=
EXTT6=
EXTT7=
EXTT8=
EXTT9=
EXTT10=
EXTT11=
EXTT12=
EXTT13=
EXTT14=
EXTT15=
EXTT16=
EXTT17=
PLAYORDER=
